<svg xmlns="http://www.w3.org/2000/svg" viewBox="0 0 100 125" x="0px" y="0px"><title>ASTRONOMY_ICONS_revised</title><path d="M34.34521,74.25195a1.50018,1.50018,0,1,0,2.12012-2.123l-7.73779-7.72754a1.5,1.5,0,0,0-2.07373-.04395L18.2251,72.085a1.49986,1.49986,0,1,0,2.02734,2.21094l5.915-5.42285v2.76623L18.2251,78.92139a1.49986,1.49986,0,1,0,2.02734,2.21093l5.915-5.42327v2.7666L18.2251,85.75732a1.49986,1.49986,0,1,0,2.02734,2.21094l5.915-5.42285V93.75635a1.5,1.5,0,0,0,3,0v-11.003l5.17773,5.171a1.50019,1.50019,0,1,0,2.12012-2.123l-7.29785-7.28821v-2.596l5.17773,5.17133a1.50019,1.50019,0,1,0,2.12012-2.12305L29.16748,71.6767V69.081Z"/><path d="M57.02344,74.25195a1.50018,1.50018,0,1,0,2.12011-2.123l-7.73828-7.72754a1.5,1.5,0,0,0-2.07373-.04395L40.90283,72.085a1.49987,1.49987,0,1,0,2.02735,2.21094l5.915-5.42285v2.76623l-7.94238,7.28211a1.49986,1.49986,0,1,0,2.02735,2.21093l5.915-5.42327v2.7666l-7.94238,7.28167a1.49987,1.49987,0,1,0,2.02735,2.21094l5.915-5.42285V93.75635a1.5,1.5,0,0,0,3,0V82.75323l5.17823,5.17109a1.50018,1.50018,0,0,0,2.12011-2.123l-7.29834-7.28821V75.91693l5.17823,5.17145a1.50018,1.50018,0,0,0,2.12011-2.12305l-7.29834-7.28869V69.08087Z"/><path d="M79.70117,74.25195a1.50018,1.50018,0,1,0,2.12012-2.123L74.0835,64.40137a1.5,1.5,0,0,0-2.07373-.04395L63.58105,72.085A1.49987,1.49987,0,1,0,65.6084,74.2959l5.915-5.42285v2.76623l-7.94239,7.28211a1.49986,1.49986,0,1,0,2.02735,2.21093l5.915-5.42327v2.7666l-7.94239,7.28167a1.49987,1.49987,0,1,0,2.02735,2.21094l5.915-5.42285V93.75635a1.5,1.5,0,0,0,3,0v-11.003l5.17773,5.171a1.50019,1.50019,0,0,0,2.12012-2.123l-7.29785-7.28821v-2.596l5.17773,5.17133a1.50019,1.50019,0,0,0,2.12012-2.12305L74.52344,71.6767V69.081Z"/><path d="M94.84521,6.47559a1.5,1.5,0,1,0-3,0v9.31774c-2.83593-2.47027-6.80847-3.76806-10.58593-4.73541V6.47559a1.5,1.5,0,1,0-3,0V9.46112A17.30949,17.30949,0,0,0,78.279,12.453c.2199,1.19585,1.4761,1.3094,2.439,1.55872,1.15831.29991,2.31093.62565,3.4433,1.0131a16.51069,16.51069,0,0,1,5.90557,3.18156,8.70267,8.70267,0,0,1,.89462.94837c1.06347,1.31884.94775,2.16162.76806,2.68115-.2514.7276-1.18219,2.12085-4.49316,3.76727V18.7168a1.5,1.5,0,1,0-3,0v7.9497a1.4914,1.4914,0,0,0,.02234.22174c-1.22217.46241-2.645.93525-4.29285,1.411V16.375a1.5,1.5,0,0,0-3,0V29.10156c-.55969.13935-1.13275.27857-1.73535.41748l-.11279.02588c-.80347.18537-1.61481.35358-2.42237.53052V6.47559a1.5,1.5,0,1,0-3,0V30.7204q-2.13015.43671-4.27051.83691V6.47559a1.5,1.5,0,0,0-3,0V32.0802q-2.13537.36621-4.2705.69049V6.47559a1.5,1.5,0,0,0-3,0V33.215c-1.02863.1361-2.10041.23388-3.14258.32507-.37335.03265-.75049.06677-1.12793.10181V6.47559a1.5,1.5,0,0,0-3,0V34.0011c-.51422.08136-1.0268.17358-1.53467.2865a11.60514,11.60514,0,0,0-2.73584.94012V6.47559a1.5,1.5,0,1,0-3,0V39.875c0,2.9132,3.08392,3.871,6.35255,4.65088C53.103,45.99126,59.53542,45.60909,65.751,46.61377l.27343.04346c2.77881.4375,3.6709.96484,3.6709,2.16992,0,1.81592-5.07275,3.25342-6.98242,3.79443l-.73437.21c-.67188.19709-1.365.38507-2.07081.56824V49.5a1.5,1.5,0,0,0-3,0v4.61487c-1.59368.34759-3.27478.66809-5.0625.96326V47.9375a1.5,1.5,0,0,0-3,0v7.59015c-1.55969.228-3.11932.45093-4.67871.65033V45.8125a1.5,1.5,0,0,0-3,0V56.53674q-2.29175.27045-4.55615.51325V24.625a1.5,1.5,0,0,0-3,0V57.36267c-1.72027.17133-3.41418.33234-5.0918.487V29.62549a1.5,1.5,0,0,0-3,0V58.1236q-2.60046.23061-5.0913.43316V34.62549a1.5,1.5,0,0,0-3,0V58.79388q-2.59343.19849-5.0918.3675V39.626a1.5,1.5,0,0,0-3,0V59.35663q-1.23294.07635-2.44873.14581A1.5,1.5,0,0,0,6.9707,62.5c.02881,0,.05762-.001.08692-.00244,6.37744-.36377,13.07763-.86865,20.48486-1.543,7.437-.67725,15.40723-1.47021,23.30127-2.67822a91.94337,91.94337,0,0,0,11.97949-2.56592l.707-.20264C66.958,54.53662,72.75714,53.25,72.75714,47.96V35.72162a1.5,1.5,0,0,0-3,0V44.5235a13.86923,13.86923,0,0,0-3.26593-.82965l-.26221-.042c-3.14557-.50811-6.32306-.77653-9.49774-1.02508a58.82675,58.82675,0,0,1-9.06866-1.01887c-2.748-.65576-3.98438-1.62744-3.98438-2.10791,0-1.0249,1.11768-1.79346,3.32227-2.28369a40.62354,40.62354,0,0,1,5.27246-.6875c1.15381-.10108,2.34717-.20557,3.51758-.36817,6.68847-.93164,13.418-2.17382,20.002-3.69287l.11182-.02539c11.21093-2.58447,17.31494-5.73291,18.66064-9.62646a5.02755,5.02755,0,0,0,.2688-1.81116c.00293-.03815.01147-.07471.01147-.11365Z"/></svg>