<svg width="800" height="600" viewBox="0 0 800 600" xmlns="http://www.w3.org/2000/svg">
  <defs>
    <linearGradient id="auroraGradient" x1="0%" y1="0%" x2="100%" y2="100%">
      <stop offset="0%" style="stop-color:rgb(0,255,255);stop-opacity:1" />
      <stop offset="50%" style="stop-color:rgb(0,128,255);stop-opacity:1" />
      <stop offset="100%" style="stop-color:rgb(0,0,128);stop-opacity:1" />
    </linearGradient>
  </defs>
  <rect width="800" height="600" fill="black" />
  <path d="M 0 300 Q 200 200 400 300 T 800 300" stroke="url(#auroraGradient)" stroke-width="2" fill="none" opacity="0.7"/>
  <g stroke="forestgreen" stroke-width="2" fill="none">
    <polygon points="100,550 125,500 150,550" />
    <polygon points="150,550 175,500 200,550" />
    <polygon points="200,550 225,500 250,550" />
    <polygon points="250,550 275,500 300,550" />
    <polygon points="300,550 325,500 350,550" />
    <polygon points="350,550 375,500 400,550" />
    <polygon points="400,550 425,500 450,550" />
    <polygon points="450,550 475,500 500,550" />
    <polygon points="500,550 525,500 550,550" />
    <polygon points="550,550 575,500 600,550" />
    <polygon points="600,550 625,500 650,550" />
    <polygon points="650,550 675,500 700,550" />
    <polygon points="700,550 725,500 750,550" />
    <polygon points="750,550 775,500 800,550" />
  </g>
</svg>